<svg id="a3799015-044c-404d-a41c-f9b2f25456fd" data-name="圖層 1" xmlns="http://www.w3.org/2000/svg" xmlns:xlink="http://www.w3.org/1999/xlink" viewBox="0 0 970 250"><defs><style>.a9a9ee46-32e6-4a58-ba39-b1726b342062,.ee1c58b4-e070-4ea3-8b41-87d84fa1a873,.f4af943e-fc14-4d04-8965-61c467a4611a{fill:none;}.b981783b-c260-4bc9-b6c1-641fdecade24{fill:url(#fddc08e7-3721-4a7c-bae2-057c2c2dea6d);}.a1d1b1c6-1523-44c3-aed4-b1b39929218b{clip-path:url(#bc8ca401-d778-4cb8-a76c-a05fa18d7a3c);}.bae01486-e5a0-4702-812f-267f91f2d36f{opacity:0.4;}.a9a9ee46-32e6-4a58-ba39-b1726b342062,.f4af943e-fc14-4d04-8965-61c467a4611a{stroke:#fff;stroke-linecap:round;stroke-linejoin:round;stroke-dasharray:3.11 3.11;}.a9a9ee46-32e6-4a58-ba39-b1726b342062{stroke-width:0.78px;}.f4af943e-fc14-4d04-8965-61c467a4611a{stroke-width:1px;opacity:0.39;}.a7541684-3339-4a8a-ac92-d57e98cb4dc5,.e15f1752-c3e4-424e-86f8-8e572ebc46e0{fill:#fff;}.a7541684-3339-4a8a-ac92-d57e98cb4dc5{fill-rule:evenodd;}.b4d44f22-e3b5-4666-90b4-55f5c33fe57e{fill:#231815;}.bf269d39-b0bb-48fb-be21-a2b9370c12b3{fill:red;}.afa8caa1-b1e8-4c19-b828-bc54ab2e4005{opacity:0.37;}.f4ead019-d578-44f6-9d68-391ef9400ab5{fill:#e74457;}</style><linearGradient id="fddc08e7-3721-4a7c-bae2-057c2c2dea6d" x1="-3" y1="125.29" x2="969.69" y2="125.29" gradientUnits="userSpaceOnUse"><stop offset="0" stop-color="#800091"/><stop offset="0.5" stop-color="#e80082"/><stop offset="1" stop-color="#ff9216"/></linearGradient><clipPath id="bc8ca401-d778-4cb8-a76c-a05fa18d7a3c"><rect class="ee1c58b4-e070-4ea3-8b41-87d84fa1a873" x="-3" y="-0.6" width="972.7" height="251.7"/></clipPath></defs><title>未命名-1</title><rect class="b981783b-c260-4bc9-b6c1-641fdecade24" x="-3" y="-0.1" width="972.7" height="250.69"/><g class="a1d1b1c6-1523-44c3-aed4-b1b39929218b"><g class="bae01486-e5a0-4702-812f-267f91f2d36f"><path class="a9a9ee46-32e6-4a58-ba39-b1726b342062" d="M-22.7,225c-2.9-31-2.1-58.7,32.4-69.6,31.2-9.9,70-5.2,91.3-34.8,18.9-26.4,18.6-61.3,53.4-74.7s63.9,6,85.6,31.1c18.6,21.6,37.2,40,68.1,29.6,26.1-8.8,33.9-30.1,40.5-54.3,3.9-14.5,8.2-35,25.6-38.7C390,10.3,405,25.3,419.4,29.3,446.3,37,470.9,8,461.9-14"/></g><g class="bae01486-e5a0-4702-812f-267f91f2d36f"><path class="a9a9ee46-32e6-4a58-ba39-b1726b342062" d="M798.6,317.3c-2.9-31.1-2.1-58.7,32.4-69.7,31.1-9.8,70-5.1,91.2-34.7,19-26.5,18.7-61.3,53.5-74.8s63.9,6,85.6,31.2c18.6,21.6,37.2,40,68,29.6,26.2-8.9,34-30.1,40.6-54.4,3.9-14.4,8.1-35,25.6-38.6,15.8-3.3,30.8,11.6,45.1,15.7,27,7.6,51.6-21.3,42.6-43.3"/></g><path class="f4af943e-fc14-4d04-8965-61c467a4611a" d="M92.3,292.2c27.7,19.8,166.6-26,197.5-46.1,26-16.9,69.2-67.2,111.4-65.6,34.4,1.2,65.5,21.6,90.2,37.9,35.6,23.6,74,43.3,117.8,32,40.7-10.4,70.1-42.9,74.8-84.6,3.5-31.8-14.1-66-5.3-97.1,21.5-76.2,95.7,6.6,136.2,13.9,51.9,9.3,168.3-59.5,156.8-122.3"/></g><path class="e15f1752-c3e4-424e-86f8-8e572ebc46e0" d="M66.6,73.8H61.1a2.8,2.8,0,0,1-3-2.9,3,3,0,0,1,3-3.2h5.5v-11H60a2.7,2.7,0,0,1-2.9-2.9A2.9,2.9,0,0,1,60,50.7H79.3a3,3,0,0,1,0,6H72.9v11H78a2.9,2.9,0,0,1,2.8,3.1,2.8,2.8,0,0,1-2.8,3H72.9V85.9c1.9-.7,3.7-1.5,5.4-2.3a3.5,3.5,0,0,1,1.7-.4,3,3,0,0,1,3,2.9A3.2,3.2,0,0,1,80.8,89c-6.8,3.1-18.7,7.8-21.4,7.8a3.1,3.1,0,0,1-3.1-3.3,3.2,3.2,0,0,1,2.4-3.2l7.9-2.2ZM78.7,106a2.7,2.7,0,0,1-3-2.7,3,3,0,0,1,3-3.1H96.8v-7H85.9a2.8,2.8,0,0,1-3.1-2.8,2.9,2.9,0,0,1,3.1-2.9H96.8V80.4H90.9c-5-.2-7.5-3-7.6-7s-.2-6.2-.2-9.5.1-6.4.2-9.3,2.2-6.6,7.7-6.8h18.6c4.8.1,7.6,3.2,7.8,6.7s.2,6.6.2,10-.1,5.9-.2,8.8-3.2,6.9-7.8,7.1h-6.3v7.1h11.5a2.7,2.7,0,0,1,2.9,2.8,2.8,2.8,0,0,1-2.9,2.9H103.3v7h15.5a2.8,2.8,0,0,1,2.9,2.9,2.7,2.7,0,0,1-2.9,2.9ZM96.8,52.9H92.7c-3.1,0-3.3,1.6-3.3,8.1h7.4Zm0,13.5H89.4c0,1.8.1,3.8.2,5.7s2.3,2.8,7.2,2.8ZM111,61.1V55.8c-.2-3-1.8-3-7.7-3v8.3Zm-7.7,5.3v8.5h4.6c3.1-.2,3.2-1.2,3.2-8.5Z"/><path class="e15f1752-c3e4-424e-86f8-8e572ebc46e0" d="M128.2,105.8a2.9,2.9,0,0,1,1.3-2.4,22.4,22.4,0,0,0,6.5-8.7,2.5,2.5,0,0,1,2.4-1.6,3.7,3.7,0,0,1,3.6,3.5c0,1.8-5.9,12.4-10.1,12.4C130,109,128.2,107.5,128.2,105.8Zm15.2-13.9-5.2-.2c-3.5-.3-5.5-2.8-5.5-6.6s-.1-12-.1-18.6c0-4.7,0-9.3.1-12.7s1.8-6,5.4-6.2h10.8a5.9,5.9,0,0,1,5.9,5.9c0,4.1.1,9.3.1,14.4s-.1,12.6-.1,17.3C154.6,91.7,149.9,91.9,143.4,91.9Zm5.3-26h-10V73h10Zm0-5.4c-.1-2-.1-3.9-.2-5.4s-1.1-2.2-4.8-2.2-4.9.3-4.9,2.2v5.4Zm-9.9,17.9V84c0,1.9,1.3,2.1,4.9,2.1s4.7-.3,4.8-2.2.1-3.5.2-5.5Zm11.9,26.5a28.1,28.1,0,0,0-4.4-7.6,2.5,2.5,0,0,1-.7-1.7c0-1.4,1.5-2.6,3.2-2.6,3.5,0,8.1,8,8.1,10.1a4,4,0,0,1-3.7,3.8A2.7,2.7,0,0,1,150.7,104.9Zm26-28.8c-3.9,7.1-9.2,14.1-15.6,19.1a4.3,4.3,0,0,1-2.5.9,3.6,3.6,0,0,1-3.6-3.4,3.1,3.1,0,0,1,1.4-2.5,65.8,65.8,0,0,0,18.2-22.9H161a3,3,0,0,1-3.3-3A3.2,3.2,0,0,1,161,61h15.1V49.3h0a3.2,3.2,0,0,1,3.4-3.3,3.3,3.3,0,0,1,3.5,3.4V61h6.2a3.3,3.3,0,0,1,3.5,3.3,3.2,3.2,0,0,1-3.5,3.1h-6.1l.3,21,.2,10.4v.3c0,4.1-2.6,9.6-11.2,9.6s-8.5-2.8-8.5-4.3,1-3.3,2.8-3.3h.8a19.8,19.8,0,0,0,4.6.7c2.6,0,4.4-1,4.4-4.4Z"/><path class="e15f1752-c3e4-424e-86f8-8e572ebc46e0" d="M214.9,94.5c-1.3.6-10,4.4-12.1,4.4a3.2,3.2,0,0,1-3.1-3.4,3,3,0,0,1,2.2-3l2.4-.7V54.2h-.6a2.9,2.9,0,0,1-3.1-3,2.8,2.8,0,0,1,3.1-2.9h17.4a2.8,2.8,0,0,1,2.9,2.9v.5a2.2,2.2,0,0,1,1.2-.2H230V47.8h0c0-1.8,1.6-2.7,3.2-2.7s3.3.9,3.3,2.8v3.7h4.9a2.7,2.7,0,0,1,2.9,2.7,2.7,2.7,0,0,1-2.9,2.7h-16a2.7,2.7,0,0,1-2.9-2.6V54l-1.2.2h-.4v52.4a2.8,2.8,0,0,1-3,2.8,2.7,2.7,0,0,1-2.9-2.8Zm.1-40.3h-5v7.6h5Zm-.1,13.3H210v6.9h4.9Zm0,12.6H210v10l4.9-1.8Zm36.9-6.4a126.3,126.3,0,0,0,1.1,13,47.2,47.2,0,0,0,3.5-8.1,2.8,2.8,0,0,1,2.7-2,3.2,3.2,0,0,1,3.3,3c0,.2-1.3,6.4-8,14.7.5,1.8,2.1,6.1,3.5,6.1s1.4-1.3,1.9-5.1a2.9,2.9,0,0,1,3-2.7,3.1,3.1,0,0,1,3.2,3.1c0,2.5-1.9,11.5-8,11.5-4.1,0-6.5-3.4-8.2-8-8.8,8-17.6,9.9-18.3,9.9a3.4,3.4,0,0,1-3.4-3.4,3.1,3.1,0,0,1,2.4-2.9c8.2-2.1,13.3-5.7,17.3-10.1a109.1,109.1,0,0,1-1.9-19H224.3a2.7,2.7,0,0,1-2.9-2.7,2.8,2.8,0,0,1,2.9-2.8h8.8a28.2,28.2,0,0,0,2.7-8.2,2.4,2.4,0,0,1,2.5-2.1c1.6,0,3.3,1.1,3.3,2.8s-.8,3.4-3.3,7.5h7.4c-.1-6.6-.1-13.4-.2-19.8h0a3.1,3.1,0,0,1,3.2-3.2,3,3,0,0,1,3.2,3.2h0c-.1,4.7-.2,10.2-.2,15.9v3.8h9.2a2.8,2.8,0,0,1,2.9,2.8,2.7,2.7,0,0,1-2.9,2.7ZM224.1,94.5c-.1-1.2-.1-3.3-.1-5.6s0-6.2.1-7.9c.1-4.5,4.8-4.6,9.4-4.6s8.6.2,8.8,4.5c0,2.3.2,5.7.2,8.7,0,7,0,9.8-8.7,9.8C228.7,99.4,224.3,99.1,224.1,94.5Zm5.3-27.4a2.2,2.2,0,0,1-2.3-1.7,6.5,6.5,0,0,0-2.1-3.6,2.2,2.2,0,0,1-.5-1.4,2.5,2.5,0,0,1,2.6-2.2c2.3,0,5.3,3.9,5.3,6.2A2.8,2.8,0,0,1,229.4,67.1Zm-.3,22.8c0,4.6.1,4.9,3.9,4.9s4.1-.4,4.1-4.9Zm8-4.4c0-1.1-.1-2.3-.1-3.1s-.4-1.6-3.7-1.6-4.1.2-4.1,4.7Zm23-21.6a2.2,2.2,0,0,1-2.1-1.3,16.6,16.6,0,0,0-4.4-5.4,1.7,1.7,0,0,1-.7-1.4c0-1.4,1.7-2.8,3.3-2.8s7.4,5.2,7.4,7.7A3.5,3.5,0,0,1,260.1,63.9Z"/><path class="e15f1752-c3e4-424e-86f8-8e572ebc46e0" d="M310.1,79.2c-.7,1.2-1.5,2.3-2.3,3.5H327c4.3.1,6.6,2.6,6.6,7.2a42.9,42.9,0,0,1-2,11.7c-1.9,4.8-5.7,7-10.6,7s-6.5-1-6.5-3.6v-.6c-3.6,3.4-7,5-8.4,5a3.1,3.1,0,0,1-3.2-3,2.7,2.7,0,0,1,1.7-2.5c7.1-3.6,11.2-8.5,14.3-16.2h-4.1c-6.1,11.2-16.8,18.7-20.3,18.7a3.2,3.2,0,0,1-3.2-3.2,2.5,2.5,0,0,1,1.7-2.4,31.2,31.2,0,0,0,15.1-13.1h-4.4c-3.9,4.3-11.1,9.7-13.5,9.7a3.3,3.3,0,0,1-3.3-3.1,2.7,2.7,0,0,1,1.6-2.3,36.2,36.2,0,0,0,14.7-12.8h-6.7a3.3,3.3,0,0,1,.4,1.4,3.6,3.6,0,0,1-2,3c-5.4,2.8-16.8,8-19.4,8a3.1,3.1,0,0,1-3.1-3.2,3.1,3.1,0,0,1,2.4-3.1c2.3-.6,4.6-1.4,7-2.2V67.5h-5.4a2.8,2.8,0,0,1-2.9-2.9,3,3,0,0,1,2.9-3.2h5.4v-12a3,3,0,0,1,3.3-3.1,3.1,3.1,0,0,1,3.4,3.1v12h4.9a2.8,2.8,0,0,1,2.8,3,2.9,2.9,0,0,1-2.8,3.1h-5V80.4a44.9,44.9,0,0,0,4.4-2.1l.9-.3a4.2,4.2,0,0,1-.4-1.5,2.9,2.9,0,0,1,3-2.9h37.7a2.8,2.8,0,1,1,0,5.6Zm11.3-8.6c-2.4.2-5.1.2-7.7.2-11.7,0-14.6-.4-14.6-8.6,0-2.8.2-6.1.3-8.7s2.5-6.2,7.1-6.4h14.7c3.6.2,6.7,2.9,6.9,5.9s.3,5.1.3,7.7,0,2.6-.1,3.8C328.2,68.2,325.5,70.4,321.4,70.6Zm.5-9.3H305.2c0,4.3.1,4.4,8.2,4.4s8.4-.2,8.5-2.5Zm-.2-6.2c-.1-2.8-.5-2.9-7.9-2.9s-8.2,0-8.3,2.9v1.2h16.4Zm-4.6,46.6h.5l.7.2,2.7.3c2.8,0,5.4-1.1,6.3-11.7V90a2.1,2.1,0,0,0-1.9-2.4A45.6,45.6,0,0,1,317.1,101.7Z"/><path class="e15f1752-c3e4-424e-86f8-8e572ebc46e0" d="M359.1,87.7c0-9.2,9.4-13.3,12-18.1a11.9,11.9,0,0,0,1.6-5.9c0-7.1-5.3-8.7-8.2-8.7a9,9,0,0,0-8.7,6.7c-.4,1.4-2.1,2.1-3.7,2.1s-4-1-4-3.4,4.4-12.6,16.3-12.6c8.5,0,15.9,5.9,15.9,15.8a19,19,0,0,1-1.5,7.2c-2.6,6.5-12,10.1-12,16.7a4.1,4.1,0,0,1-4,4.2A3.7,3.7,0,0,1,359.1,87.7Zm3.9,18.9a5,5,0,0,1-5-4.8c0-3.1,3-4.9,5-4.9a4.6,4.6,0,0,1,4.9,4.9A4.8,4.8,0,0,1,363,106.6Z"/><path class="e15f1752-c3e4-424e-86f8-8e572ebc46e0" d="M156.5,166.5a23.5,23.5,0,0,0-7.3-4.1,2.1,2.1,0,0,1-1.6-2.1,3,3,0,0,1,3-3c1.5,0,6.7,1.7,9.3,3.7a3.2,3.2,0,0,1,1.4,2.7c0,1.8-1.4,3.5-3,3.5A2.9,2.9,0,0,1,156.5,166.5Zm-5.1,28.7a3.3,3.3,0,0,1-3.3-3.2,2.8,2.8,0,0,1,.9-2.1c4-4.2,6.7-8.8,9.5-15.2a2.7,2.7,0,0,1,2.5-1.6,2.9,2.9,0,0,1,3,2.9c0,1.5-3.8,10.9-9.7,17.7A4.1,4.1,0,0,1,151.4,195.2Zm7.7-43a24.7,24.7,0,0,0-6.4-5.2,2.4,2.4,0,0,1-1.2-2,3.2,3.2,0,0,1,3.2-2.8c1.5,0,9.7,4,9.7,7.6a3.4,3.4,0,0,1-3.2,3.4A2.8,2.8,0,0,1,159.1,152.2Zm11.7,19a2.7,2.7,0,0,1,2.8-2.8,2.8,2.8,0,0,1,3,2.8c0,15.4-4.8,21.7-11.9,25a3.4,3.4,0,0,1-1.6.4,3.1,3.1,0,0,1-3-3,2.2,2.2,0,0,1,1.4-2.2c8.3-3.7,9.3-11,9.3-18.3v-1.8Zm12.6-18.5c-.5,1.4-2,5-3.2,7.5,3.8-.2,7.6-.5,11.1-.9-1.6-1-2.3-1.6-2.3-2.6a2.7,2.7,0,0,1,2.8-2.4c2,0,10.1,5.4,10.1,8.8a3,3,0,0,1-2.9,3,2.8,2.8,0,0,1-2.6-1.6,14.7,14.7,0,0,0-1-1.3,187,187,0,0,1-26.6,2.5,2.7,2.7,0,0,1-2.9-2.6,2.5,2.5,0,0,1,2.7-2.6h5.5a67.8,67.8,0,0,0,2.9-7.7h-8.6a2.6,2.6,0,0,1-2.9-2.6,2.7,2.7,0,0,1,2.9-2.6h11.9v-4.3h0a3,3,0,0,1,3.2-3,3,3,0,0,1,3.2,3h0v4.3h13.8a2.6,2.6,0,1,1,0,5.2Zm-3.6,18.1a2.8,2.8,0,0,1,5.6,0v20.3a2.9,2.9,0,0,1-5.8,0Zm19.4,14.7a2.5,2.5,0,0,1,2.7-2.5,2.8,2.8,0,0,1,3.1,2.9c0,9.1-4.2,9.5-9,9.5s-6.8-.9-6.8-6.2c0-2,.1-17.2.1-18.8a2.7,2.7,0,0,1,2.9-2.6c2.8,0,2.8,2.3,2.8,3.9,0,3.5-.1,12.6-.1,16.1v1.1c0,1.2.5,1.5,1.7,1.5s2.6-.1,2.6-4.3v-.6Z"/><path class="e15f1752-c3e4-424e-86f8-8e572ebc46e0" d="M222,171.2c-5,3.9-6.1,4.1-6.8,4.1a3,3,0,0,1-3-3.1,2.8,2.8,0,0,1,1.6-2.7,44.7,44.7,0,0,0,15-13.6,2.9,2.9,0,0,1,2.3-1.3,3.4,3.4,0,0,1,3.3,3.2c0,.9-.3,2.3-6.5,8.2l-.3,27.6a3,3,0,0,1-3.2,2.8,2.7,2.7,0,0,1-3-2.6v-.2Zm-5.9-11.6a3.1,3.1,0,0,1-3.1-3.1,3.5,3.5,0,0,1,2-3,35.1,35.1,0,0,0,12.4-10.7,3,3,0,0,1,2.4-1.4,3.3,3.3,0,0,1,3.2,3.2,3.7,3.7,0,0,1-.8,2.1C229.1,150.4,219.2,159.6,216.1,159.6Zm40.8,27.5v.2c0,3.7-2.6,8.4-11,8.4-4.8,0-6.8-.7-6.8-3.5s.9-3,2.6-3h.5a18.3,18.3,0,0,0,4,.5c2.5,0,4.4-.8,4.4-3.6,0-6.2.2-14.1.2-21.5H237.3a2.7,2.7,0,0,1-3-2.6,2.9,2.9,0,0,1,3-2.9h27a2.8,2.8,0,1,1,0,5.5h-7.6c0,5,0,9.6.1,13.7Zm-17.5-36.7a2.7,2.7,0,0,1-2.9-2.8,2.8,2.8,0,0,1,2.9-2.9h20.8a2.9,2.9,0,1,1,0,5.7Z"/><path class="e15f1752-c3e4-424e-86f8-8e572ebc46e0" d="M278,155.9a2.6,2.6,0,0,1-2.7-2.7,2.6,2.6,0,0,1,2.7-2.7h19.4a2.6,2.6,0,0,1,2.8,2.7,2.6,2.6,0,0,1-2.8,2.7Zm14.4,38.9-5.1.2-4.9-.2a5,5,0,0,1-5-5v-9.4a4.9,4.9,0,0,1,4.8-4.9h10.3c2.5.2,5.3,1.8,5.3,4.6s.1,3.1.1,4.9,0,3.3-.1,4.7C297.8,192.6,295.7,194.7,292.4,194.8Zm-11.6-47.7a2.5,2.5,0,0,1-2.7-2.6,2.5,2.5,0,0,1,2.7-2.6H294a2.6,2.6,0,1,1,0,5.2Zm.1,17a2.6,2.6,0,1,1,0-5.2h13.2a2.6,2.6,0,1,1,0,5.2Zm0,8.3a2.6,2.6,0,0,1-2.8-2.7,2.6,2.6,0,0,1,2.8-2.6h13.2a2.5,2.5,0,0,1,2.7,2.6,2.6,2.6,0,0,1-2.7,2.7Zm11.4,12.8a31.1,31.1,0,0,0-.1-3.2c-.1-1.7-1.5-1.7-4.7-1.7h-2.8c-1.8.1-1.8,1.2-1.8,4.8v3.2c.1,1.4,1.3,1.6,4.6,1.6s4.7-.4,4.7-1.6S292.3,186.2,292.3,185.2Zm26.1-21.3v8.3l3.5.2c3.3.1,6.3,2.3,6.5,5.6s.3,4.4.3,6.7c0,8-.3,10.3-12.6,10.3s-13.3-.3-13.3-9.4c0-2.6.1-5.2.2-7.4.2-6,6.2-6,9.6-6v-8.3H302.3a2.7,2.7,0,0,1-2.9-2.7,2.7,2.7,0,0,1,2.9-2.7h10.3V151c-4,.5-7.9.7-9,.7a2.6,2.6,0,0,1-2.7-2.7,2.7,2.7,0,0,1,2.5-2.9,66.1,66.1,0,0,0,21.1-3.7l1-.2a3,3,0,0,1,2.8,3c0,2-1.3,3.1-9.9,4.9v8.4h11.2a2.7,2.7,0,0,1,3,2.7,2.8,2.8,0,0,1-3,2.7Zm4,15.5c-.1-2.2-1.3-2.2-6.9-2.2h-4.2c-2.6.1-2.6,1.3-2.6,7s0,5.4,7,5.4,6.9-.2,6.9-5.6C322.6,182.4,322.5,180.8,322.4,179.4Z"/><path class="e15f1752-c3e4-424e-86f8-8e572ebc46e0" d="M357.6,179.9v7.8c2.5,1,6.1,2.2,16,2.2,6.4,0,13.4-.5,19.2-.9h.3a2.7,2.7,0,0,1,2.7,2.9,3.2,3.2,0,0,1-3.1,3.2c-4.5.4-9.5.7-14.3.7-13.6,0-24.8-1.1-31.1-9.7-2.2,8.2-4.2,10-6.3,10s-3-.9-3-2.3a2.9,2.9,0,0,1,.6-1.6c3.2-4.2,4.8-10.6,4.8-16.5v-1h0c0-1.5,1.3-2.2,2.7-2.2a2.5,2.5,0,0,1,2.8,2.4,41.4,41.4,0,0,1-.4,4.6,14.7,14.7,0,0,0,3.6,5.1V170.4h-9.3a2.4,2.4,0,1,1,0-4.8h22.9a2.4,2.4,0,1,1,0,4.8h-8.1V175h6.2a2.3,2.3,0,0,1,2.4,2.5,2.3,2.3,0,0,1-2.4,2.4Zm2.6-17.2a59.1,59.1,0,0,1-6,.2c-9.4,0-11.7-.3-11.7-8.1,0-2.2.2-4.6.2-6.7a5.8,5.8,0,0,1,5.8-5.6h11.6a6.1,6.1,0,0,1,5.6,5.2c.2,2,.3,4.3.3,6.4s0,2.2-.1,3.2C365.8,160.6,363.6,162.5,360.2,162.7Zm.4-7.9h-13v1.5c.1,1.7.9,2.2,6.4,2.2s6.6-.2,6.6-2.3Zm-.1-5.3c-.1-2.5-.7-2.5-6.2-2.5s-6.5.1-6.6,2.5v.9h12.9Zm22.8-1.2c-.3,1.2-.6,2.3-.9,3.2,5.6,0,9.1.5,9.3,4.8.2,2.5.2,5.4.2,8.2s0,5.7-.2,8.1-2.4,4.8-5.9,5a27.2,27.2,0,0,0,7.8,3.9,2.9,2.9,0,0,1-.8,5.7c-2.7,0-8.1-3.8-10.4-5.5a2.1,2.1,0,0,1-.9-1.8,2.9,2.9,0,0,1,1.2-2.2h-5.2a2.3,2.3,0,0,1,1,2c0,3-10.4,8.2-13,8.2a2.7,2.7,0,0,1-2.8-2.7,2.8,2.8,0,0,1,2.4-2.7,21.8,21.8,0,0,0,9.2-5c-2.9-.6-4.4-2.5-4.4-4.8s-.1-5.2-.1-8,0-5.7.1-8.3,1.7-4.6,6.1-4.7h.6a27.2,27.2,0,0,0,.7-3.3h-7.4a2.5,2.5,0,1,1,0-4.9h22.3a2.5,2.5,0,1,1,0,4.9Zm3.1,14.4H375.1v3.5h11.3Zm-.2-5.3c0-1.9-.8-2.1-5.3-2.1s-5.5.3-5.7,2.1v1.4h11.1Zm-11,12.7v1.7c.1,1.3.2,2.1,5.6,2.1,3.9,0,5.3,0,5.4-2.1s.1-1.2.1-1.7Z"/><path class="e15f1752-c3e4-424e-86f8-8e572ebc46e0" d="M415.6,177.8c0-8.1,8.4-11.8,10.7-16a11.3,11.3,0,0,0,1.4-5.2c0-6.2-4.8-7.7-7.3-7.7a8.1,8.1,0,0,0-7.7,5.9c-.3,1.3-1.8,1.9-3.3,1.9s-3.5-.9-3.5-3,3.9-11.2,14.4-11.2c7.5,0,14,5.3,14,14a18.5,18.5,0,0,1-1.2,6.4c-2.3,5.7-10.7,8.9-10.7,14.7a3.5,3.5,0,0,1-3.5,3.7A3.2,3.2,0,0,1,415.6,177.8Zm3.5,16.7a4.3,4.3,0,0,1-4.4-4.2,4.6,4.6,0,0,1,4.4-4.4,4.3,4.3,0,1,1,0,8.6Z"/><path class="e15f1752-c3e4-424e-86f8-8e572ebc46e0" d="M522.7,170.3h20.2l-.3,7.2h3.9v3.1h-4c0,1.7-.1,3.1-.2,4.2h3.3v3.1h-3.5a10.9,10.9,0,0,1-.2,1.5,3.7,3.7,0,0,1-1.6,2.2,7,7,0,0,1-3.6.7h-4l-1-3h4.6l1.5-.2a2,2,0,0,0,1-1.2H520.4c.4-2.4.8-4.9,1.1-7.3h-4.9v-3.1h5.2c.2-2.3.3-4.5.4-6.6a27.2,27.2,0,0,1-3.2,3.5l-2.2-2.6a27.4,27.4,0,0,0,6.6-9.5l3.4.8a20,20,0,0,0-1,2.1h19.1v3.2h-21Zm2.2,10.3c-.2,1.5-.4,3-.6,4.2h8.5a27.5,27.5,0,0,0-5.1-2.1l1.5-2.1Zm7.8-3.1a32.6,32.6,0,0,0-4.8-2l1.5-2.1h-4c-.1,1.4-.2,2.8-.2,4.1Zm-3.2,3.1a32.1,32.1,0,0,1,6.2,2.6l-1,1.6h4.4c0-1.1.1-2.5.2-4.2Zm9.9-3.1v-4.1h-9.8a35,35,0,0,1,6.2,2.6l-.9,1.5Z"/><path class="e15f1752-c3e4-424e-86f8-8e572ebc46e0" d="M574.3,192.2H571V190H556.8v2.3h-3.3V163.7h20.8ZM571,174.8v-7.9H556.8v7.9Zm0,11.9v-8.6H556.8v8.6Z"/><path class="e15f1752-c3e4-424e-86f8-8e572ebc46e0" d="M598.1,164l-1.1,1.2h8.3v2.6c-3.4,6.1-9.8,9.6-19.2,10.4l-1.4-3a34.7,34.7,0,0,0,6.9-1,17.6,17.6,0,0,0-2.6-2.8l2.9-1.5c1,1,2,2.1,2.9,3.2a15.6,15.6,0,0,0,6.7-5h-8.3a27.8,27.8,0,0,1-8.8,3.3l-1.9-3.1c5.6-1,9.9-2.9,12.6-5.8Zm-.1,22.1a19.1,19.1,0,0,0,7.3-5.4h-8.6a39.6,39.6,0,0,1-9.7,3l-2-2.9c7-.7,12.1-2.7,15.4-6.2l2.9,1.6-1.7,1.5h8v2.6c-4.6,7.5-13.2,11.4-25.7,11.7l-1.4-3.2a41.9,41.9,0,0,0,12.4-1.6,31.3,31.3,0,0,0-3-3.2l3-1.5A36.5,36.5,0,0,1,598,186.1Z"/><path class="e15f1752-c3e4-424e-86f8-8e572ebc46e0" d="M641.7,173.5v3.3h-8.5v10.8c0,.8.3,1.2,1.1,1.2h3.5a.9.9,0,0,0,.9-.7,17.6,17.6,0,0,0,.4-4.7l3.1,1c-.3,3.6-.7,5.8-1.3,6.4a2.9,2.9,0,0,1-2.5,1h-5.1c-2.3,0-3.4-1.2-3.4-3.5V176.8h-4.8v.6a17.8,17.8,0,0,1-2.7,9.8,15,15,0,0,1-7.7,5.2l-1.8-2.8c3.5-1.2,5.8-2.7,7-4.5a17.1,17.1,0,0,0,2-7.7v-.6h-8v-3.3Zm-2.8-9.4v3.2H616.4v-3.2Z"/><path class="e15f1752-c3e4-424e-86f8-8e572ebc46e0" d="M673.9,163.7v3.1H661.5v2h9.8v13.4H661.1a15.4,15.4,0,0,1-1.6,4.3,49.9,49.9,0,0,0,15.4,2.7l-.9,3.3a46.1,46.1,0,0,1-16.6-3.6c-2.3,1.8-6,3-10.9,3.5l-1.5-3c4-.2,7-.9,9.1-2.1a24.7,24.7,0,0,1-4.6-3.1l2.6-1.8a26.2,26.2,0,0,0,4.3,2.7,8.4,8.4,0,0,0,1.2-2.9h-9.1V168.8h9.7v-2H645.9v-3.1Zm-15.7,10.4v-2.5h-6.3v2.5Zm0,3.3v-.6h-6.3v2.5h6.2A12.8,12.8,0,0,0,658.2,177.4Zm9.8-.6h-6.5v2.5H668Zm-6.5-2.7H668v-2.5h-6.5Z"/><path class="e15f1752-c3e4-424e-86f8-8e572ebc46e0" d="M682.7,183a36.7,36.7,0,0,1-3.1,8.5l-2.8-1.8a24.8,24.8,0,0,0,2.9-7.4Zm-5.3-7.6v-3h3.3a20.8,20.8,0,0,0-1.3-3l2.9-1.1c.5,1.2.9,2.5,1.4,4.1h2.8c.4-1.3.9-2.7,1.2-4.1l3,1.1a20.8,20.8,0,0,1-1.2,3h3.2v3h-5.9V178h5.3v3.1h-5.3v11.4h-3.4V181.1h-5.5V178h5.5v-2.6Zm5.9-10.3a15.9,15.9,0,0,0-1.3-2.2l3.5-.6c.4.8.7,1.8,1.1,2.8h5.9v3.1H677.7v-3.1Zm8.7,22.5-2.8,1.1a55.8,55.8,0,0,0-1.8-5.8l2.7-.8C690.9,184.1,691.5,186,692,187.6Zm14.2-21.7a36.8,36.8,0,0,1-9,1.6v5h9.6v3.2h-2.9v16.7h-3.3V175.7h-3.4v3c-.2,5.7-1.5,10.2-3.8,13.6l-2.4-2.5c1.8-2.7,2.8-6.4,2.9-11.1V164.8a31.3,31.3,0,0,0,10.6-1.9Z"/><path class="e15f1752-c3e4-424e-86f8-8e572ebc46e0" d="M726.2,175.7a4.9,4.9,0,0,1,.8,2.8,6.7,6.7,0,0,1-1.5,4.4,6.9,6.9,0,0,1-4,2.6v-2.1a4.8,4.8,0,0,0,2.2-1.5,3.7,3.7,0,0,0,.9-2.3h-.8a2.3,2.3,0,0,1-1.8-.7,2.4,2.4,0,0,1-.7-1.8,1.9,1.9,0,0,1,.8-1.8,2.4,2.4,0,0,1,1.9-.7A2.8,2.8,0,0,1,726.2,175.7Z"/><path class="e15f1752-c3e4-424e-86f8-8e572ebc46e0" d="M770.9,187.5v3.2H741.5v-3.2h8.6c-1-5.8-2.2-11.4-3.5-16.8h-3.7v-3.3h11.6c-.5-1.4-1.1-2.8-1.6-4l3.6-.6c.4,1.3.8,2.9,1.3,4.6h11.6v3.3h-3.7a149.8,149.8,0,0,1-3.9,16.8Zm-20.8-16.8q1.8,7.5,3.3,16.8h4.9a124,124,0,0,0,3.9-16.8Z"/><path class="e15f1752-c3e4-424e-86f8-8e572ebc46e0" d="M773.5,188.3a1.8,1.8,0,0,0,1.4-1.7V163.7h12.7v15.7h-9.5v7.8l6.2-2.1-1.5-2.4,2.5-1.6a65.1,65.1,0,0,1,4.6,7.9l-2.6,1.8c-.5-1-.9-1.9-1.5-2.9a70.3,70.3,0,0,1-11.2,3.6Zm11-21.6h-6.4v3.2h6.4Zm-6.4,9.6h6.4v-3.4h-6.4ZM796,188l-.9-3.3,2.2.2a1.2,1.2,0,0,0,1.3-1.3V166.9h-4.5v25.4h-3.3V163.7H802v20.6c0,2.5-1.2,3.7-3.6,3.7Z"/><path class="e15f1752-c3e4-424e-86f8-8e572ebc46e0" d="M813.8,170.4V173a47.1,47.1,0,0,1-3.4,4.8h3.8V180a28.4,28.4,0,0,1-1.6,5.7l.6.5a10.2,10.2,0,0,0,2.9,1.9,12.5,12.5,0,0,0,4,.7h6l9.1-.2-.8,3.1H820a19.2,19.2,0,0,1-5-.7,10.3,10.3,0,0,1-3.6-2.4.9.9,0,0,0-.8-.4c-.5,0-1.5,1.4-2.8,4.2l-2.4-2.2c1.4-2.8,2.8-4.5,4.2-5a29.7,29.7,0,0,0,1.5-4.5h-4.6v-2.5a32.9,32.9,0,0,0,3.6-4.7h-4.2v-3Zm0-3.1-2.2,2.2a27.8,27.8,0,0,0-4.9-4.6l2.2-2.1A43.6,43.6,0,0,1,813.8,167.3ZM826,163l-.9,2.9h7V175H820v2.4h13.1v9.4H816.8V165.9h5a18.6,18.6,0,0,0,.7-3.4Zm2.8,9.3v-3.4H820v3.4ZM820,183.7h9.9v-3.6H820Z"/><path class="e15f1752-c3e4-424e-86f8-8e572ebc46e0" d="M847.8,163.7v10.9h-2.2v4.2h2.2v3.1h-2.2v4.3l2.6-1v3.1c-2.9,1.2-6.1,2.4-9.7,3.5l-1-3,1.1-.3V176.8h2.7v10.9l1.3-.4V174.6h-3.9V163.7Zm-2.8,2.8h-3.4v5.2H845Zm9.8,6.9a24.8,24.8,0,0,1-1.7,3.7V192h-3V181.3l-1.1,1.1-.9-3.1a20,20,0,0,0,4.1-7.1Zm-.3-9.5a22.2,22.2,0,0,1-5.4,9.2l-1-3.2a20.2,20.2,0,0,0,3.8-7.3Zm8,11.4v4.2H866v2.9h-3.5V189h1.1a24.8,24.8,0,0,0,3.8-.2l-.6,3.2H865c-3,0-5.2-.6-6.5-1.7a7.1,7.1,0,0,1-1.5-2.2c-.4,1.5-.8,3-1.2,4.3l-2.3-2a47.3,47.3,0,0,0,2-13l2.7.4c-.1,1.8-.2,3.5-.4,5.2a11.2,11.2,0,0,0,1.7,4.5V175.3Zm-6.7-1.2-2-2.5a24,24,0,0,0,2.7-9l2.8.5c-.3,1.7-.5,3.4-.9,4.8l2,2.8-1.9,2.8c-.4-1-.7-2-1-2.7A16.9,16.9,0,0,1,855.8,174.1Zm6.2.8-2-2.5a29.7,29.7,0,0,0,2.5-9.9l2.8.5a37.4,37.4,0,0,1-.9,5.2,30.4,30.4,0,0,1,2.6,3.4l-1.9,2.9a30.1,30.1,0,0,0-1.5-3.4A27.2,27.2,0,0,1,862,174.9Z"/><path class="e15f1752-c3e4-424e-86f8-8e572ebc46e0" d="M886.3,184.8a2.9,2.9,0,0,1,.7,1.8,2.4,2.4,0,0,1-2.5,2.4,2.1,2.1,0,0,1-1.7-.7,1.9,1.9,0,0,1-.8-1.7,2.2,2.2,0,0,1,.8-1.8,2.4,2.4,0,0,1,1.7-.6A2.8,2.8,0,0,1,886.3,184.8Zm.4-18.7-.8,16.3h-2.8l-.8-16.3Z"/><rect class="e15f1752-c3e4-424e-86f8-8e572ebc46e0" x="596.8" y="68.6" width="328.6" height="72.39" rx="35.3"/><path class="a7541684-3339-4a8a-ac92-d57e98cb4dc5" d="M899.7,144.6a37,37,0,0,1,4.4,7.5,25.9,25.9,0,0,0,1.4,2.9l1.4,2.7a59.6,59.6,0,0,1,4.2,8.9h23c2.4-5.7,4.9-11.7,5.7-17.9a52.4,52.4,0,0,0,.2-5.6v-5.3c.1-2.3.3-9.3-4.9-8.2-.2.1-.7.2-.8.4v7a1.5,1.5,0,0,1-1.4,1.5,1.5,1.5,0,0,1-1.5-1.5V126.6q0-.3-.6-.6a4.5,4.5,0,0,0-4.5,0c-.3.2-.6.4-.6.6v7.7a1.5,1.5,0,0,1-1.5,1.5,1.5,1.5,0,0,1-1.4-1.5v-9.7c0-.3-.3-.6-.7-.9a6.2,6.2,0,0,0-5.3,0c-.5.3-.7.6-.7.9v8.9a1.5,1.5,0,0,1-3,0c0-7.4.1-14.8.1-22.1a3.3,3.3,0,0,0-1-2.4,3.4,3.4,0,0,0-4.8,0,3.3,3.3,0,0,0-1,2.4V144a1.5,1.5,0,0,1-1.4,1.5,1.5,1.5,0,0,1-1.5-1.5v-6.2l-3.2-3.2a3.5,3.5,0,0,0-2.6-1,3.4,3.4,0,0,0-3.1,3.3,3.5,3.5,0,0,0,1,2.5l4.1,5.2Z"/><path class="b4d44f22-e3b5-4666-90b4-55f5c33fe57e" d="M899.6,144.6a32.5,32.5,0,0,1,4.3,7.5c2.3,4.8,5.3,9.4,7.1,14.5h23c2.3-5.5,4.7-11.3,5.6-17.3a58.6,58.6,0,0,0,.3-7.3v-4.2c.1-2.2.2-8.7-4.2-8.3a2.5,2.5,0,0,0-1.5.5v7a1.4,1.4,0,0,1-1.4,1.4,1.5,1.5,0,0,1-1.5-1.4V126.6q0-.3-.6-.6a4.8,4.8,0,0,0-4.5-.1c-.4.3-.6.5-.6.7v7.7a1.5,1.5,0,0,1-1.5,1.5,1.5,1.5,0,0,1-1.4-1.5v-9.7c0-.3-.3-.6-.8-.9a5.9,5.9,0,0,0-5.2,0c-.5.3-.7.6-.7.9v8.9a1.5,1.5,0,0,1-3,0V111.4a3.2,3.2,0,0,0-.9-2.4,3.4,3.4,0,0,0-4.8,0,3.3,3.3,0,0,0-1,2.4V144a1.5,1.5,0,0,1-1.4,1.5,1.5,1.5,0,0,1-1.5-1.5v-6.2l-3.2-3.2a3.5,3.5,0,0,0-3.8-.7,3.3,3.3,0,0,0-.9,5.4l4.1,5.3Zm43.2.4c0,8.4-3.3,16.1-6.4,23.3l-.5,1.2h-27a65.9,65.9,0,0,0-4.7-10.5c-1-1.8-2-3.7-2.9-5.6a39.1,39.1,0,0,0-3.2-6l-4.7-6a6.2,6.2,0,0,1-1.8-4.8,6.3,6.3,0,0,1,6.3-5.9,6.4,6.4,0,0,1,4.4,1.8l1.1,1.2V111.4a6.2,6.2,0,0,1,1.9-4.5,6.3,6.3,0,0,1,8.8,0,6.2,6.2,0,0,1,1.9,4.5v9.4a8.3,8.3,0,0,1,7.5.5,4.2,4.2,0,0,1,1.7,1.8,7.7,7.7,0,0,1,7.1.4,3.9,3.9,0,0,1,1.9,3.2c9-1.6,9.1,8,8.8,14.3,0,1.3-.2,2.7-.2,4Z"/><path class="bf269d39-b0bb-48fb-be21-a2b9370c12b3" d="M720.6,105.6c.5-.2.7-.4.7-.6s-.2-.3-.7-.4l-3.1-.3V119l3,.2Z"/><path class="bf269d39-b0bb-48fb-be21-a2b9370c12b3" d="M716.8,112.2h0l-2.2-2.4-1.6,1.8v-6.5h3.4c.4.1,1,.2,0-.9h0l-2.1-2-1.4,1.6h-7.3l.2,1.5H709v6.7h-3.8l.3,1.4H709v10.3l3.9-.7v-9.6h3.8C717.1,113.1,717.8,113.3,716.8,112.2Z"/><path class="bf269d39-b0bb-48fb-be21-a2b9370c12b3" d="M725.5,123.6a2.2,2.2,0,0,0,.8-2V103.3c.6-.3.9-.6.9-.8s-.2-.4-.8-.5l-3.9-.4v18.8s.2,2.8-.8,3.9Z"/><path class="bf269d39-b0bb-48fb-be21-a2b9370c12b3" d="M697.2,120.5v-4.2c.5-.2.7-.4.7-.6a.9.9,0,0,0-.3-.5l-2.6-1.7-1.5,1.2h-2l-3.3-.8v8.6l3.4-.5v-2h1.9v1Zm-5.6-1.6v-3h1.9v3Z"/><path class="bf269d39-b0bb-48fb-be21-a2b9370c12b3" d="M703.3,103.4l-3.3-2.1-1.5,1.8H686.8l-3.7-.6V113c-.1,1.8-.6,7.6-3.3,10.9,0,0,6.6-1,7.1-10.9h0v-1.5l.2.8H698c.3.1.9-.1.2-.8h-.1c-.1-.1,0-.1-.2-.2l-1.5-1.7-1.3,1.6h-.8v-2.2h3.5c.2,0,1.1.1,0-1.1h0l-1.6-1.6-1.2,1.4h-.7v-1c.4-.2.7-.4.7-.6s-.3-.4-.8-.5l-3.5-.2v2.3h-3.2l.3,1.3h2.9V111h-3.8v-6.5h11.8v16.1s.2,2.7-.7,3.9l3.7-.7a2.5,2.5,0,0,0,.9-2V104.7h.1c.7-.3,1-.5,1-.7S703.5,103.6,703.3,103.4Z"/><path class="bf269d39-b0bb-48fb-be21-a2b9370c12b3" d="M657.6,88.3a12.7,12.7,0,0,0,1.3-1.9s1.3.2,1.5-.8,0-.7-1.1-1.1l-7.2-2.4s-7.2,16-22.5,25.1A50,50,0,0,0,655.5,91a49.9,49.9,0,0,0,4.9,5.3c6.3,7.4,15.7,10.3,15.7,10.3s7.2-8,7.2-8A46.2,46.2,0,0,1,657.6,88.3Z"/><path class="bf269d39-b0bb-48fb-be21-a2b9370c12b3" d="M664.5,102.9l-4.1-3.7s-.8-.7-1.3.1l-2.1,3.2H644.2l.4,1.8h19.3S665.6,104.4,664.5,102.9Z"/><path class="bf269d39-b0bb-48fb-be21-a2b9370c12b3" d="M670.4,109.6l-5.1-2.4-2.6,1.7H638.8l.4,1.8h22.7l-7.3,10.5c-1.5,1.9-1.2,1.6-2.1,2.2l6.9,1.1c1.7.1,3.1-1.8,3.1-1.8l7.2-10.4a2.9,2.9,0,0,0,1.3-.8C671.9,110.5,670.4,109.6,670.4,109.6Z"/><path d="M753.2,106.6a5.9,5.9,0,1,1,5.9,5.8,5.8,5.8,0,0,1-5.9-5.8m-3.1,0a9,9,0,1,0,9-9,8.9,8.9,0,0,0-9,9m16.2-9.4a2.1,2.1,0,0,0,2.1,2.1,2.1,2.1,0,0,0,2.1-2.1,2.2,2.2,0,0,0-2.1-2.1,2.1,2.1,0,0,0-2.1,2.1M752,120.8a11.1,11.1,0,0,1-3.2-.6,7,7,0,0,1-3.4-3.4,11.1,11.1,0,0,1-.6-3.2c0-1.8-.1-2.4-.1-7s.1-5.3.1-7.1a11.1,11.1,0,0,1,.6-3.2,4.8,4.8,0,0,1,1.4-2,3.9,3.9,0,0,1,2-1.3,7.9,7.9,0,0,1,3.2-.7h14.1a7.9,7.9,0,0,1,3.2.7,3.9,3.9,0,0,1,2,1.3,4.8,4.8,0,0,1,1.4,2,11.1,11.1,0,0,1,.6,3.2c0,1.8.1,2.4.1,7.1s-.1,5.2-.1,7a11.1,11.1,0,0,1-.6,3.2,7,7,0,0,1-3.4,3.4,11.1,11.1,0,0,1-3.2.6H752m-.1-31.6a14.3,14.3,0,0,0-4.3.8,8.7,8.7,0,0,0-5.1,5.1,14.3,14.3,0,0,0-.8,4.3c-.1,1.8-.1,2.4-.1,7.2s0,5.3.1,7.1a14.3,14.3,0,0,0,.8,4.3,8.7,8.7,0,0,0,5.1,5.1,14.3,14.3,0,0,0,4.3.8h14.3a14.3,14.3,0,0,0,4.3-.8,8.7,8.7,0,0,0,5.1-5.1,14.3,14.3,0,0,0,.8-4.3c.1-1.8.1-2.4.1-7.1s0-5.4-.1-7.2a14.3,14.3,0,0,0-.8-4.3,8.7,8.7,0,0,0-5.1-5.1,14.3,14.3,0,0,0-4.3-.8H751.9"/><path d="M789.3,93.8a10.2,10.2,0,0,0-5.6,7c-1,4.3,3.2,6.2,3.5,5.6s-.7-1-1-3.2a9.3,9.3,0,0,1,2.7-7.5c.4-.3.3.1.3.7v14.4a20.7,20.7,0,0,1-.4,5c-.2,1-.6,1.6-.3,1.9s1.7-.4,2.4-1.5a7.2,7.2,0,0,0,1.3-4.5c.1-2.1.1-5.3.1-7.2V94.9C792.3,94.1,790.2,93.4,789.3,93.8ZM895,109.9c-.3,0-.4.3-.6.9s-.9,2.5-1.5,2.5-1.2-1-1.4-3a61.9,61.9,0,0,1,.1-7.3c0-.6-.1-1.2-1.7-1.8s-1.7-.6-2.2.6a27.1,27.1,0,0,0-2,7.1h-.1a45.5,45.5,0,0,1-.3-5.8,1.7,1.7,0,0,0-.9-1.6c-.4-.3-1.8-.8-2.3-.2a10,10,0,0,0-1.5,3.4l-.7,2.2v-4.8a.7.7,0,0,0-.5-.7,5.9,5.9,0,0,0-1.7-.4c-.5,0-.6.3-.6.7s-.1,4.6-.1,7.8v.4c-.3,1.5-1.2,3.5-2.1,3.5s-1.4-.8-1.4-4.6c0-2.3.1-3.2.1-4.8s.1-1.7.1-1.8-.9-.8-1.3-.9h-1a.7.7,0,0,0-.7.6v.6a3.3,3.3,0,0,0-5.8,0,9.4,9.4,0,0,0-1.7,4.7,15.2,15.2,0,0,0,.2,4.3c-.3,1.4-.9,2-1.6,2s-1.7-1.6-1.6-4.4a20.9,20.9,0,0,1,.8-4.9,1.6,1.6,0,0,0-.3-1.6c-.3-.4-1-.6-2-.3l-2.6.4a1.5,1.5,0,0,0,.1-.6c.3-2-1.9-1.8-2.6-1.2a2.8,2.8,0,0,0-.9,1.7,2.1,2.1,0,0,0,.9,1.9,20,20,0,0,1-2,5.1l-1.3,2.1V104c0-1,.1-1.7.1-1.8s-.2-.5-.7-.7a5,5,0,0,0-1.3-.3c-.6,0-1,.3-1,.7v.5a3.3,3.3,0,0,0-5.8,0,10.6,10.6,0,0,0-1.7,4.7,17,17,0,0,0,.1,4c-.2,1.1-.9,2.3-1.6,2.3s-1.5-.8-1.5-4.6c0-2.3.1-3.2.1-4.8s.1-1.7.1-1.8-.9-.8-1.3-.9h-1a.8.8,0,0,0-.7.6v.6a3.1,3.1,0,0,0-1.8-1.5,3.4,3.4,0,0,0-4,1.5c-.8,1-1.3,2.2-1.7,4.7,0,.7-.1,1.4-.1,2s-1.6,3.9-2.6,3.9-1.3-1.2-1.3-3.8.3-8.3.3-8.8h3.8c.4-.1.8-1.7.4-1.9h-2.3l-1.9-.2s.2-3.2.2-3.5-.3-.5-.6-.6l-1.5-.4c-.7-.1-1.1,0-1.1.6s-.2,3.8-.2,3.8h-3c-.5,0-1.1,2.2-.3,2.3h3.1v6.9a7.6,7.6,0,0,1-2.3,4.2,4.4,4.4,0,0,0-1.9-4.3l-2.8-2.1a7.5,7.5,0,0,0,1.3-2c.4-1,.5-2.1-.6-2.3a3.2,3.2,0,0,0-3.6,2.2,2.8,2.8,0,0,0,.5,2.7l.2.2-1.4,2.5c-1.3,2.2-2.2,4-3,4s-.5-1.8-.5-3.4.1-3.6.2-5.8a1.6,1.6,0,0,0-1-1.5,3.7,3.7,0,0,0-1.6-.7c-.7,0-2.7.1-4.6,5.5-.2.7-.7,1.9-.7,1.9v-6.5a.5.5,0,0,0-.3-.4,4.3,4.3,0,0,0-1.9-.5c-.4,0-.6.1-.6.5v10.2a12.2,12.2,0,0,0,.1,2.1,4.6,4.6,0,0,0,.3.9l.7.4c.2,0,1.7.2,1.8-.3a20.1,20.1,0,0,1,.9-4.2c1.2-4.3,2.8-6.4,3.5-7.1s.3-.2.3.1-.2,3.2-.2,5.2c-.2,5.4.7,6.4,2.1,6.4s2.6-1.1,4.2-3.8l2.7-4.4,1.5,1.4c1.3,1.2,1.7,2.4,1.4,3.4s-1,1.7-2.4.9l-1-.7a.6.6,0,0,0-.8,0,3.1,3.1,0,0,0-1,1.5c-.1.6.5.9,1.1,1.2a6.6,6.6,0,0,0,2.5.5c2.9.1,5.3-1.4,6.9-5.3.3,3.4,1.5,5.3,3.7,5.3s2.9-1.9,3.5-3.7a5.4,5.4,0,0,0,.8,1.9c1.6,2.6,4.9,2.1,6.5-.2l.6-.9a3,3,0,0,0,2.9,2.8,3.2,3.2,0,0,0,3-2.2l.3.5c1.6,2.6,4.9,2.1,6.5-.2l.2-.2v1.3l-1.5,1.4c-2.5,2.3-4.4,4-4.5,6.1s1.9,3.5,3.5,3.6a4.3,4.3,0,0,0,4-2.1c.8-1.1,1.3-3.6,1.3-6s-.1-2.2-.1-3.5a32.9,32.9,0,0,0,2.8-3.9,30.6,30.6,0,0,0,2.6-5.5h1.9q.4,0,.3.3c0,.3-1.2,4.8-.2,7.8a3.9,3.9,0,0,0,3.4,2.8,3.2,3.2,0,0,0,2.8-2.2l.3.4c1.6,2.6,4.8,2.1,6.5-.2l.6-.9a3.1,3.1,0,0,0,3,2.9c1,0,1.9-.5,2.7-2.3a13,13,0,0,0,.2,1.7c0,.1.3.3.5.4a6.3,6.3,0,0,0,2.3.1.8.8,0,0,0,.4-.8,33.7,33.7,0,0,1,.4-5.2,15.7,15.7,0,0,1,1.6-4.3c.2-.3.4-.4.4-.1a42.7,42.7,0,0,0,.3,5.1,17.5,17.5,0,0,0,.6,3.2,2,2,0,0,0,1.9,1.1c.3,0,1.1-.1,1-.8a19.9,19.9,0,0,1,.7-4.9,17.6,17.6,0,0,1,1.4-3.9c.1-.3.1-.1.1-.1a41.4,41.4,0,0,0,.4,7.5c.6,2.9,2.6,3.3,3.3,3.3s2.6-1.1,3-4.1c.1-.7,0-1.2-.5-1.2Zm-60.9-1.8a10.1,10.1,0,0,1-.9,3.8c-.8,1.7-2.6,2.2-3.3-.3a11,11,0,0,1-.1-5.4c.3-1.9,1.1-3.3,2.5-3.2S834.3,104.9,834.1,108.1Zm13.3,0a9.7,9.7,0,0,1-.9,3.8c-.8,1.7-2.6,2.2-3.3-.3a13.2,13.2,0,0,1-.2-5.2c.4-1.7,1.2-3.4,2.6-3.4S847.6,104.5,847.4,108.1Zm.4,9.9c-.1,2.7-.5,5-1.4,5.7a1.6,1.6,0,0,1-2.6-1.7c.3-1.7,1.8-3.5,4-5.6Zm22.9-9.9a9.2,9.2,0,0,1-.9,3.8c-.8,1.7-2.6,2.2-3.3-.3a15.7,15.7,0,0,1-.2-5.4c.3-1.9,1.2-3.3,2.6-3.2S870.9,104.9,870.7,108.1Z"/><g class="afa8caa1-b1e8-4c19-b828-bc54ab2e4005"><rect class="e15f1752-c3e4-424e-86f8-8e572ebc46e0" x="36.6" y="135.1" width="53.8" height="33.57" rx="4.9"/><path class="f4ead019-d578-44f6-9d68-391ef9400ab5" d="M73.5,148.5h0a5,5,0,0,0-5-5.1,5.1,5.1,0,0,0-5,5.1,5,5,0,0,0-5-5.1,5.1,5.1,0,0,0-5,5.1s-.2,7.8,10,11.8h0C73.6,156.3,73.5,148.8,73.5,148.5Z"/><polygon class="e15f1752-c3e4-424e-86f8-8e572ebc46e0" points="56.8 168.4 63.4 177.3 70.3 168.4 56.8 168.4"/></g><rect class="e15f1752-c3e4-424e-86f8-8e572ebc46e0" x="79.8" y="157.6" width="40.5" height="25.26" rx="3.7"/><path class="f4ead019-d578-44f6-9d68-391ef9400ab5" d="M107.6,167.6h0a3.8,3.8,0,1,0-7.5,0,3.8,3.8,0,0,0-3.8-3.8,3.7,3.7,0,0,0-3.7,3.8s-.2,5.9,7.5,9h0C107.6,173.6,107.6,167.9,107.6,167.6Z"/><polygon class="e15f1752-c3e4-424e-86f8-8e572ebc46e0" points="95 182.7 100 189.4 105.1 182.7 95 182.7"/><path class="e15f1752-c3e4-424e-86f8-8e572ebc46e0" d="M482.4,91v2.8c-1.1,1.7-2.3,3.4-3.7,5.2h4v2.3a26.4,26.4,0,0,1-1.6,6.2,2.7,2.7,0,0,1,.8.7,12.8,12.8,0,0,0,3.2,2,13.4,13.4,0,0,0,4.2.7h6.5l9.8-.2-.8,3.4h-8.5l-7.1-.2a16.9,16.9,0,0,1-5.3-.7,11.5,11.5,0,0,1-4-2.6,1.1,1.1,0,0,0-.8-.3c-.6,0-1.7,1.5-3.2,4.5l-2.6-2.5c1.6-3,3.1-4.7,4.6-5.3a24.4,24.4,0,0,0,1.4-5h-4.9V99.3a51.8,51.8,0,0,0,4-5.1h-4.5V91Zm0-3.3L480,90a32.7,32.7,0,0,0-5.3-5l2.4-2.3A42.6,42.6,0,0,1,482.4,87.7Zm1.6-1.2v-3h19.2v2.6a34.1,34.1,0,0,1-6.4,4.3h7.1v15.4c0,2.2-1,3.3-3.2,3.3h-2.9l-.8-3h2.7c.5,0,.8-.3.8-1.1v-1.4h-4.6v5.6h-3.4v-5.6H488v5.6h-3.4V90.5h7.7l-3.6-2.2,1.9-1.8Zm8.5,7H488v2.2h4.5Zm-4.5,7.3h4.5V98.6H488Zm10.3-14.3h-6.9c1.2.8,2.3,1.5,3.3,2.3A31.7,31.7,0,0,0,498.3,86.5Zm2.2,7h-4.6v2.2h4.6Zm-4.6,7.3h4.6V98.6h-4.6Z"/><path class="e15f1752-c3e4-424e-86f8-8e572ebc46e0" d="M517.2,91v2.8a50.7,50.7,0,0,1-3.7,5.2h4.1v2.3a31.8,31.8,0,0,1-1.7,6.2l.9.7a12.4,12.4,0,0,0,3.1,2,14.1,14.1,0,0,0,4.3.7h6.4l9.8-.2-.8,3.4h-8.5l-7.1-.2a17.4,17.4,0,0,1-5.3-.7,10.3,10.3,0,0,1-3.9-2.6l-.8-.3q-1.1,0-3.3,4.5l-2.6-2.5c1.6-3,3.1-4.7,4.6-5.3a24.4,24.4,0,0,0,1.4-5h-4.9V99.3a40.1,40.1,0,0,0,4-5.1h-4.5V91Zm0-3.3L514.8,90a32.7,32.7,0,0,0-5.3-5l2.4-2.3A36.6,36.6,0,0,1,517.2,87.7Zm1.6-1.2v-3H538v2.6a37,37,0,0,1-6.3,4.3h7.1v15.4q0,3.3-3.3,3.3h-2.9l-.8-3h2.7c.6,0,.8-.3.8-1.1v-1.4h-4.6v5.6h-3.4v-5.6h-4.5v5.6h-3.4V90.5h7.7l-3.6-2.2,1.9-1.8Zm8.5,7h-4.5v2.2h4.5Zm-4.5,7.3h4.5V98.6h-4.5Zm10.4-14.3h-7c1.2.8,2.3,1.5,3.3,2.3S532,87.3,533.2,86.5Zm2.1,7h-4.6v2.2h4.6Zm-4.6,7.3h4.6V98.6h-4.6Z"/><path class="e15f1752-c3e4-424e-86f8-8e572ebc46e0" d="M545,104.5l-2.3-3a42.7,42.7,0,0,0,9.4-11.1h-8.2V86.9h9.9a37.5,37.5,0,0,0,1.7-4.7l3.8.4c-.5,1.5-.9,2.9-1.5,4.3h16.9v3.5H556.2a41.2,41.2,0,0,1-4.7,7.5v17h-3.6v-13Zm16.5-6.1v-6h3.7v6h8v3.5h-8v8.2h9.5v3.5H552.8v-3.5h8.7v-8.2H554V98.4Z"/></svg>